HIERARCHY
ROOT Hips
{
	OFFSET 0 0 0
	CHANNELS 6 Xposition Yposition Zposition Zrotation Xrotation Yrotation 
	JOINT RightUpLeg
	{
		OFFSET -3.17 -2.64 -0.26
		CHANNELS 3 Zrotation Xrotation Yrotation 
		JOINT RightLeg
		{
			OFFSET -0.36 -13.7 -0.45
			CHANNELS 3 Zrotation Xrotation Yrotation 
			End Site
			{
				OFFSET 0.13 -14.01 -0.08
			}
		}
	}
	JOINT LeftUpLeg
	{
		OFFSET 3.17 -2.64 -0.26
		CHANNELS 3 Zrotation Xrotation Yrotation 
		JOINT LeftLeg
		{
			OFFSET 0.36 -13.7 -0.45
			CHANNELS 3 Zrotation Xrotation Yrotation 
			End Site
			{
				OFFSET -0.13 -14.01 -0.08
			}
		}
	}
	JOINT Spine
	{
		OFFSET 0 2.88 0
		CHANNELS 3 Zrotation Xrotation Yrotation 
		JOINT Spine1
		{
			OFFSET 0 3.38 0
			CHANNELS 3 Zrotation Xrotation Yrotation 
			JOINT Spine2
			{
				OFFSET 0 3.61 0
				CHANNELS 3 Zrotation Xrotation Yrotation 
				JOINT Spine3
				{
					OFFSET 0 3.52 0.37
					CHANNELS 3 Zrotation Xrotation Yrotation 
					JOINT Neck
					{
						OFFSET 0 3.62 -0.37
						CHANNELS 3 Zrotation Xrotation Yrotation 
						End Site
						{
							OFFSET 0 3 0
						}
					}
					JOINT RightShoulder
					{
						OFFSET -1.47 1.22 -0.37
						CHANNELS 3 Zrotation Xrotation Yrotation 
						JOINT RightArm
						{
							OFFSET -4.69 0 0
							CHANNELS 3 Zrotation Xrotation Yrotation 
							JOINT RightForeArm
							{
								OFFSET -7.76 0 0
								CHANNELS 3 Zrotation Xrotation Yrotation 
								JOINT RightHand
								{
									OFFSET -8.52 0 0
									CHANNELS 3 Zrotation Xrotation Yrotation 
									JOINT RightHandThumb1
									{
										OFFSET -1.01 0.08 1.27
										CHANNELS 3 Zrotation Xrotation Yrotation 
										JOINT RightHandThumb2
										{
											OFFSET -1.5 0 -0.01
											CHANNELS 3 Zrotation Xrotation Yrotation 
											End Site
											{
												OFFSET -1.04 0 -0.01
											}
										}
									}
									JOINT RightInHandIndex
									{
										OFFSET -1.31 0.21 0.81
										CHANNELS 3 Zrotation Xrotation Yrotation 
										JOINT RightHandIndex1
										{
											OFFSET -2.13 -0.04 0.41
											CHANNELS 3 Zrotation Xrotation Yrotation 
											JOINT RightHandIndex2
											{
												OFFSET -1.47 -0.07 0
												CHANNELS 3 Zrotation Xrotation Yrotation 
												End Site
												{
													OFFSET -0.83 -0.05 0
												}
											}
										}
									}
									JOINT RightInHandMiddle
									{
										OFFSET -1.38 0.21 0.31
										CHANNELS 3 Zrotation Xrotation Yrotation 
										JOINT RightHandMiddle1
										{
											OFFSET -2.11 -0.03 0.13
											CHANNELS 3 Zrotation Xrotation Yrotation 
											JOINT RightHandMiddle2
											{
												OFFSET -1.6 -0.11 0
												CHANNELS 3 Zrotation Xrotation Yrotation 
												End Site
												{
													OFFSET -1 -0.08 0
												}
											}
										}
									}
									JOINT RightInHandRing
									{
										OFFSET -1.37 0.22 -0.05
										CHANNELS 3 Zrotation Xrotation Yrotation 
										JOINT RightHandRing1
										{
											OFFSET -1.89 -0.01 -0.2
											CHANNELS 3 Zrotation Xrotation Yrotation 
											JOINT RightHandRing2
											{
												OFFSET -1.4 -0.13 0
												CHANNELS 3 Zrotation Xrotation Yrotation 
												End Site
												{
													OFFSET -0.97 -0.08 0
												}
											}
										}
									}
									JOINT RightInHandPinky
									{
										OFFSET -1.29 0.19 -0.49
										CHANNELS 3 Zrotation Xrotation Yrotation 
										JOINT RightHandPinky1
										{
											OFFSET -1.69 -0.01 -0.44
											CHANNELS 3 Zrotation Xrotation Yrotation 
											JOINT RightHandPinky2
											{
												OFFSET -1.12 -0.06 -0.01
												CHANNELS 3 Zrotation Xrotation Yrotation 
												End Site
												{
													OFFSET -0.71 -0.05 0
												}
											}
										}
									}
								}
							}
						}
					}
					JOINT LeftShoulder
					{
						OFFSET 1.47 1.22 -0.37
						CHANNELS 3 Zrotation Xrotation Yrotation 
						JOINT LeftArm
						{
							OFFSET 4.69 0 0
							CHANNELS 3 Zrotation Xrotation Yrotation 
							JOINT LeftForeArm
							{
								OFFSET 7.76 0 0
								CHANNELS 3 Zrotation Xrotation Yrotation 
								JOINT LeftHand
								{
									OFFSET 8.52 0 0
									CHANNELS 3 Zrotation Xrotation Yrotation 
									JOINT LeftHandThumb1
									{
										OFFSET 1.01 0.08 1.27
										CHANNELS 3 Zrotation Xrotation Yrotation 
										JOINT LeftHandThumb2
										{
											OFFSET 1.5 0 0
											CHANNELS 3 Zrotation Xrotation Yrotation 
											End Site
											{
												OFFSET 1.04 0 0
											}
										}
									}
									JOINT LeftInHandIndex
									{
										OFFSET 1.31 0.21 0.81
										CHANNELS 3 Zrotation Xrotation Yrotation 
										JOINT LeftHandIndex1
										{
											OFFSET 2.13 -0.04 0.41
											CHANNELS 3 Zrotation Xrotation Yrotation 
											JOINT LeftHandIndex2
											{
												OFFSET 1.47 -0.07 0
												CHANNELS 3 Zrotation Xrotation Yrotation 
												End Site
												{
													OFFSET 0.83 -0.05 0
												}
											}
										}
									}
									JOINT LeftInHandMiddle
									{
										OFFSET 1.38 0.21 0.31
										CHANNELS 3 Zrotation Xrotation Yrotation 
										JOINT LeftHandMiddle1
										{
											OFFSET 2.11 -0.03 0.13
											CHANNELS 3 Zrotation Xrotation Yrotation 
											JOINT LeftHandMiddle2
											{
												OFFSET 1.6 -0.11 0
												CHANNELS 3 Zrotation Xrotation Yrotation 
												End Site
												{
													OFFSET 1 -0.08 0
												}
											}
										}
									}
									JOINT LeftInHandRing
									{
										OFFSET 1.37 0.22 -0.05
										CHANNELS 3 Zrotation Xrotation Yrotation 
										JOINT LeftHandRing1
										{
											OFFSET 1.89 -0.01 -0.2
											CHANNELS 3 Zrotation Xrotation Yrotation 
											JOINT LeftHandRing2
											{
												OFFSET 1.4 -0.11 0
												CHANNELS 3 Zrotation Xrotation Yrotation 
												End Site
												{
													OFFSET 0.97 -0.07 0
												}
											}
										}
									}
									JOINT LeftInHandPinky
									{
										OFFSET 1.29 0.19 -0.49
										CHANNELS 3 Zrotation Xrotation Yrotation 
										JOINT LeftHandPinky1
										{
											OFFSET 1.69 -0.01 -0.44
											CHANNELS 3 Zrotation Xrotation Yrotation 
											JOINT LeftHandPinky2
											{
												OFFSET 1.12 -0.06 0
												CHANNELS 3 Zrotation Xrotation Yrotation 
												End Site
												{
													OFFSET 0.71 -0.05 0
												}
											}
										}
									}
								}
							}
						}
					}
				}
			}
		}
	}
}
MOTION
Frames: 13
Frame Time: 0.0333333
33.2447 17.5498 13.8681 357.2615 -3.5145 14.2466 35.9373 -70.3749 24.2964 180 -281.7572 180 78.1918 -16.7853 58.946 180.0002 -274.6962 179.9998 4.3588 -351.5166 353.7988 0.9988 -357.7781 358.5993 1.6817 -356.3037 357.737 359.4704 -357.9056 1.2648 104.875 -277.6191 262.9706 350.7523 -357.8007 14.301 64.3381 -30.3784 59.6851 147.6518 -312.3242 306.6273 244.2284 -284.853 159.5937 350.2164 -340.893 117.7797 0.2211 -17.4658 90.7368 0 0 0 118.5745 -346.7585 352.8889 292.4525 0 0 0 0 0 36.6003 0 0 36.6003 0 0 0 0 0 12.53 -3.327 345.3654 12.9574 0 0 0 0 0 119.3003 -22.1292 11.9363 116.958 0 0 22.1039 -4.5017 343.4267 278.9623 -53.0147 271.8595 17.2265 -55.9731 189.3597 311.9425 -30.9293 348.3572 322.776 -349.5941 346.6261 1.5395 -5.8982 104.6567 0 0 0 247.6252 -346.0837 5.6541 171.7641 0 0 0 0 0 338.8616 0 0 338.8616 0 0 0 0 0 340.0243 -5.2301 14.0783 339.3781 0 0 0 0 0 15.6066 -352.8495 24.0188 17.1296 0 0 
33.2593 17.5524 13.8769 357.2614 -3.5125 14.2347 35.8929 -70.3404 24.2907 180 -281.774 180 78.1501 -16.751 58.9213 180 -274.7089 180 4.4011 -351.539 353.7758 1.0093 -357.7822 358.5948 1.6991 -356.31 357.7301 359.4706 -357.9064 1.2643 105.1717 -277.6171 262.665 350.8888 -357.8676 14.3628 64.1773 -30.3734 59.6103 147.6347 -312.4131 306.6021 244.328 -284.8568 159.4911 350.2206 -340.9024 117.7805 0.2227 -17.476 90.7417 0 0 0 118.6047 -346.7622 352.882 292.4235 0 0 0 0 0 36.591 0 0 36.591 0 0 0 0 0 12.5346 -3.3282 345.3656 12.9621 0 0 0 0 0 119.2905 -22.1311 11.9326 116.9487 0 0 22.181 -4.6013 343.5869 273.8966 -53.1399 268.1237 24.1987 -56.2641 199.934 312.192 -30.3253 350.2243 323.4189 -346.6349 342.7 0.5356 -6.2484 94.9091 0 0 0 247.3537 -346.11 5.7194 171.7431 0 0 0 0 0 337.4551 0 0 337.4551 0 0 0 0 0 344.562 -4.0798 14.4468 344.0447 0 0 0 0 0 20.5992 -350.683 23.3033 22.5245 0 0 
33.2593 17.5524 13.8769 357.2614 -3.5125 14.2347 35.8929 -70.3404 24.2907 180 -281.774 180 78.1501 -16.751 58.9213 180 -274.7089 180 4.4011 -351.539 353.7758 1.0093 -357.7822 358.5948 1.6991 -356.31 357.7301 359.4706 -357.9064 1.2643 105.1717 -277.6171 262.665 350.8888 -357.8676 14.3628 64.1773 -30.3734 59.6103 147.6347 -312.4131 306.6021 244.328 -284.8568 159.4911 350.2206 -340.9024 117.7805 0.2227 -17.476 90.7417 0 0 0 118.6047 -346.7622 352.882 292.4235 0 0 0 0 0 36.591 0 0 36.591 0 0 0 0 0 12.5346 -3.3282 345.3656 12.9621 0 0 0 0 0 119.2905 -22.1311 11.9326 116.9487 0 0 22.181 -4.6013 343.5869 273.8966 -53.1399 268.1237 24.1987 -56.2641 199.934 312.192 -30.3253 350.2243 323.4189 -346.6349 342.7 0.5356 -6.2484 94.9091 0 0 0 247.3537 -346.11 5.7194 171.7431 0 0 0 0 0 337.4551 0 0 337.4551 0 0 0 0 0 344.562 -4.0798 14.4468 344.0447 0 0 0 0 0 20.5992 -350.683 23.3033 22.5245 0 0 
33.2516 17.5533 13.8802 357.265 -3.5141 14.2232 35.9004 -70.3074 24.2694 180 -281.7394 180 78.1292 -16.7387 58.9028 180 -274.6539 180 4.4487 -351.5685 353.7686 1.0214 -357.7882 358.5943 1.719 -356.3193 357.73 359.472 -357.9096 1.2643 105.8112 -277.6625 262.0618 350.9364 -357.8864 14.3867 64.1661 -30.4113 59.5964 147.6825 -312.5242 306.5095 244.3749 -284.8475 159.4645 350.2206 -340.9024 117.7805 0.2227 -17.476 90.7417 0 0 0 118.6047 -346.7622 352.882 292.4056 0 0 0 0 0 36.591 0 0 36.591 0 0 0 0 0 12.5346 -3.3282 345.3656 12.9621 0 0 0 0 0 119.2905 -22.1311 11.9326 116.9487 0 0 22.2847 -4.7524 343.6706 268.6047 -53.0145 264.2654 41.866 -54.1764 227.62 314.6135 -25.4166 343.7285 324.5205 -343.7287 338.54 359.4501 -6.2068 84.9272 0 0 0 244.0923 -346.449 6.4931 171.7431 0 0 0 0 0 334.2308 0 0 334.2308 0 0 0 0 0 349.6383 -2.7592 14.7498 349.2811 0 0 0 0 0 24.8004 -348.9328 22.5595 27.0144 0 0 
33.2516 17.5533 13.8802 357.265 -3.5141 14.2232 35.9004 -70.3074 24.2694 180 -281.7394 180 78.1292 -16.7387 58.9028 180 -274.6539 180 4.4487 -351.5685 353.7686 1.0214 -357.7882 358.5943 1.719 -356.3193 357.73 359.472 -357.9096 1.2643 105.8112 -277.6625 262.0618 350.9364 -357.8864 14.3867 64.1661 -30.4113 59.5964 147.6825 -312.5242 306.5095 244.3749 -284.8475 159.4645 350.2206 -340.9024 117.7805 0.2227 -17.476 90.7417 0 0 0 118.6047 -346.7622 352.882 292.4056 0 0 0 0 0 36.591 0 0 36.591 0 0 0 0 0 12.5346 -3.3282 345.3656 12.9621 0 0 0 0 0 119.2905 -22.1311 11.9326 116.9487 0 0 22.2847 -4.7524 343.6706 268.6047 -53.0145 264.2654 41.866 -54.1764 227.62 314.6135 -25.4166 343.7285 324.5205 -343.7287 338.54 359.4501 -6.2068 84.9272 0 0 0 244.0923 -346.449 6.4931 171.7431 0 0 0 0 0 334.2308 0 0 334.2308 0 0 0 0 0 349.6383 -2.7592 14.7498 349.2811 0 0 0 0 0 24.8004 -348.9328 22.5595 27.0144 0 0 
33.2349 17.5556 13.8788 357.2591 -3.5188 14.2115 35.9651 -70.2929 24.2679 180.0001 -281.6994 179.9999 78.1519 -16.7459 58.896 180 -274.6039 180 4.5027 -351.593 353.7572 1.035 -357.7927 358.593 1.7414 -356.3262 357.7289 359.4738 -357.9132 1.2643 106.2986 -277.7239 261.6316 350.9901 -357.8629 14.3363 64.0178 -30.3408 59.5764 147.6804 -312.4995 306.519 244.4743 -284.8381 159.3831 350.2226 -340.9074 117.7817 0.224 -17.4813 90.7458 0 0 0 118.62 -346.764 352.8785 292.3902 0 0 0 0 0 36.5851 0 0 36.5851 0 0 0 0 0 12.5341 -3.328 345.3656 12.9616 0 0 0 0 0 119.2839 -22.1324 11.9301 116.9425 0 0 22.4377 -4.8745 343.7073 263.7961 -52.6344 260.8251 46.8182 -51.1109 237.8969 316.4182 -22.605 344.9016 325.3296 -340.8692 334.6476 358.3369 -6.4498 75.5083 0 0 0 249.488 -345.912 5.2034 170.2178 0 0 0 0 0 332.6052 0 0 332.6052 0 0 0 0 0 354.7014 -1.4175 14.9344 354.5156 0 0 0 0 0 28.212 -347.5685 21.8645 30.6223 0 0 
33.2349 17.5556 13.8788 357.2591 -3.5188 14.2115 35.9651 -70.2929 24.2679 180.0001 -281.6994 179.9999 78.1519 -16.7459 58.896 180 -274.6039 180 4.5027 -351.593 353.7572 1.035 -357.7927 358.593 1.7414 -356.3262 357.7289 359.4738 -357.9132 1.2643 106.2986 -277.7239 261.6316 350.9901 -357.8629 14.3363 64.0178 -30.3408 59.5764 147.6804 -312.4995 306.519 244.4743 -284.8381 159.3831 350.2226 -340.9074 117.7817 0.224 -17.4813 90.7458 0 0 0 118.62 -346.764 352.8785 292.3902 0 0 0 0 0 36.5851 0 0 36.5851 0 0 0 0 0 12.5341 -3.328 345.3656 12.9616 0 0 0 0 0 119.2839 -22.1324 11.9301 116.9425 0 0 22.4377 -4.8745 343.7073 263.7961 -52.6344 260.8251 46.8182 -51.1109 237.8969 316.4182 -22.605 344.9016 325.3296 -340.8692 334.6476 358.3369 -6.4498 75.5083 0 0 0 249.488 -345.912 5.2034 170.2178 0 0 0 0 0 332.6052 0 0 332.6052 0 0 0 0 0 354.7014 -1.4175 14.9344 354.5156 0 0 0 0 0 28.212 -347.5685 21.8645 30.6223 0 0 
33.2167 17.5557 13.8696 357.25 -3.5238 14.1959 36.0962 -70.2949 24.3411 180 -281.6532 180 78.1926 -16.768 58.913 180 -274.5691 180 4.55 -351.6145 353.7454 1.0469 -357.7966 358.5915 1.761 -356.3322 357.7271 359.4738 -357.9143 1.2657 106.2337 -277.7467 261.7119 351.005 -357.8723 14.3758 64 -30.3789 59.5779 147.7077 -312.5811 306.4893 244.4882 -284.8192 159.3772 350.2226 -340.9074 117.7817 0.224 -17.4813 90.7458 0 0 0 118.62 -346.764 352.8785 292.386 0 0 0 0 0 36.5851 0 0 36.5851 0 0 0 0 0 12.5341 -3.328 345.3656 12.9616 0 0 0 0 0 119.2839 -22.1324 11.9301 116.9425 0 0 22.528 -5.0359 343.7667 259.9699 -51.8337 258.1953 50.6593 -47.9512 248.1102 316.5471 -18.411 336.2067 323.7027 -338.1164 333.0945 356.8204 -8.6812 69.7944 0 0 0 258.7532 -345.2754 2.8935 168.5057 0 0 0 0 0 332.6052 0 0 332.6052 0 0 0 0 0 354.7014 -1.4175 14.9344 354.5156 0 0 0 0 0 30.3471 -346.7431 21.3898 32.8616 0 0 
33.2167 17.5557 13.8696 357.25 -3.5238 14.1959 36.0962 -70.2949 24.3411 180 -281.6532 180 78.1926 -16.768 58.913 180 -274.5691 180 4.55 -351.6145 353.7454 1.0469 -357.7966 358.5915 1.761 -356.3322 357.7271 359.4738 -357.9143 1.2657 106.2337 -277.7467 261.7119 351.005 -357.8723 14.3758 64 -30.3789 59.5779 147.7077 -312.5811 306.4893 244.4882 -284.8192 159.3772 350.2226 -340.9074 117.7817 0.224 -17.4813 90.7458 0 0 0 118.62 -346.764 352.8785 292.386 0 0 0 0 0 36.5851 0 0 36.5851 0 0 0 0 0 12.5341 -3.328 345.3656 12.9616 0 0 0 0 0 119.2839 -22.1324 11.9301 116.9425 0 0 22.528 -5.0359 343.7667 259.9699 -51.8337 258.1953 50.6593 -47.9512 248.1102 316.5471 -18.411 336.2067 323.7027 -338.1164 333.0945 356.8204 -8.6812 69.7944 0 0 0 258.7532 -345.2754 2.8935 168.5057 0 0 0 0 0 332.6052 0 0 332.6052 0 0 0 0 0 354.7014 -1.4175 14.9344 354.5156 0 0 0 0 0 30.3471 -346.7431 21.3898 32.8616 0 0 
33.1955 17.5529 13.8559 357.2487 -3.5398 14.1911 36.1883 -70.3127 24.3676 180.0001 -281.6105 179.9999 78.2473 -16.8007 58.9392 180 -274.5474 180 4.5808 -351.6168 353.751 1.0546 -357.7965 358.5941 1.7738 -356.3318 357.7319 359.4743 -357.9147 1.2654 106.0892 -277.7753 261.8875 350.9583 -357.8565 14.3582 64.0762 -30.4764 59.6665 147.775 -312.693 306.4803 244.3817 -284.7885 159.5004 350.2204 -340.8965 117.774 0.2182 -17.4708 90.7269 0 0 0 118.582 -346.7594 352.8872 292.3884 0 0 0 0 0 36.6017 0 0 36.6017 0 0 0 0 0 12.5402 -3.3296 345.3659 12.9679 0 0 0 0 0 119.3029 -22.1287 11.9373 116.9604 0 0 22.6302 -5.2097 343.7377 257.3773 -51.168 256.6152 52.9857 -44.7027 257.7425 318.2552 -14.7973 337.3814 325.5347 -335.3417 328.7077 355.4461 -7.9095 59.9376 0 0 0 260.3668 -345.2022 2.4823 166.21 0 0 0 0 0 337.028 0 0 337.028 0 0 0 0 0 0.9043 -359.7577 14.9981 0.9362 0 0 0 0 0 31.873 -346.1673 21.0324 34.4529 0 0 
33.1955 17.5529 13.8559 357.2487 -3.5398 14.1911 36.1883 -70.3127 24.3676 180.0001 -281.6105 179.9999 78.2473 -16.8007 58.9392 180 -274.5474 180 4.5808 -351.6168 353.751 1.0546 -357.7965 358.5941 1.7738 -356.3318 357.7319 359.4743 -357.9147 1.2654 106.0892 -277.7753 261.8875 350.9583 -357.8565 14.3582 64.0762 -30.4764 59.6665 147.775 -312.693 306.4803 244.3817 -284.7885 159.5004 350.2204 -340.8965 117.774 0.2182 -17.4708 90.7269 0 0 0 118.582 -346.7594 352.8872 292.3884 0 0 0 0 0 36.6017 0 0 36.6017 0 0 0 0 0 12.5402 -3.3296 345.3659 12.9679 0 0 0 0 0 119.3029 -22.1287 11.9373 116.9604 0 0 22.6302 -5.2097 343.7377 257.3773 -51.168 256.6152 52.9857 -44.7027 257.7425 318.2552 -14.7973 337.3814 325.5347 -335.3417 328.7077 355.4461 -7.9095 59.9376 0 0 0 260.3668 -345.2022 2.4823 166.21 0 0 0 0 0 337.028 0 0 337.028 0 0 0 0 0 0.9043 -359.7577 14.9981 0.9362 0 0 0 0 0 31.873 -346.1673 21.0324 34.4529 0 0 
33.1722 17.5535 13.8449 357.2538 -3.5551 14.1943 36.2549 -70.3119 24.3697 180 -281.5512 180 78.2851 -16.8248 58.9656 180 -274.4974 180 4.601 -351.6172 353.7528 1.0597 -357.7961 358.5953 1.7821 -356.331 357.7343 359.4758 -357.9162 1.2622 106.9769 -277.7806 261.0018 350.9984 -357.8246 14.3624 63.9551 -30.5123 59.6665 147.7794 -312.6959 306.5211 244.394 -284.7995 159.4772 350.2185 -340.896 117.7781 0.2206 -17.4695 90.7347 0 0 0 118.5838 -346.7596 352.8868 292.3861 0 0 0 0 0 36.5989 0 0 36.5989 0 0 0 0 0 12.5351 -3.3283 345.3656 12.9626 0 0 0 0 0 119.2993 -22.1294 11.9359 116.9571 0 0 22.7009 -5.3376 343.7456 257.36 -51.1735 256.7737 55.6958 -42.6161 268.2185 321.3314 -15.9913 348.3586 328.3356 -332.7898 323.4472 354.4919 -6.4214 49.2313 0 0 0 254.4182 -345.5277 3.9865 164.4153 0 0 0 0 0 331.34 0 0 331.34 0 0 0 0 0 15.1492 -355.9945 14.4671 15.6578 0 0 0 0 0 38.0109 -343.9782 19.4496 40.7742 0 0 
33.1722 17.5535 13.8449 357.2538 -3.5551 14.1943 36.2549 -70.3119 24.3697 180 -281.5512 180 78.2851 -16.8248 58.9656 180 -274.4974 180 4.601 -351.6172 353.7528 1.0597 -357.7961 358.5953 1.7821 -356.331 357.7343 359.4758 -357.9162 1.2622 106.9769 -277.7806 261.0018 350.9984 -357.8246 14.3624 63.9551 -30.5123 59.6665 147.7794 -312.6959 306.5211 244.394 -284.7995 159.4772 350.2185 -340.896 117.7781 0.2206 -17.4695 90.7347 0 0 0 118.5838 -346.7596 352.8868 292.3861 0 0 0 0 0 36.5989 0 0 36.5989 0 0 0 0 0 12.5351 -3.3283 345.3656 12.9626 0 0 0 0 0 119.2993 -22.1294 11.9359 116.9571 0 0 22.7009 -5.3376 343.7456 257.36 -51.1735 256.7737 55.6958 -42.6161 268.2185 321.3314 -15.9913 348.3586 328.3356 -332.7898 323.4472 354.4919 -6.4214 49.2313 0 0 0 254.4182 -345.5277 3.9865 164.4153 0 0 0 0 0 331.34 0 0 331.34 0 0 0 0 0 15.1492 -355.9945 14.4671 15.6578 0 0 0 0 0 38.0109 -343.9782 19.4496 40.7742 0 0 
